<svg width="181" height="52" viewBox="0 0 181 52" fill="none" xmlns="http://www.w3.org/2000/svg">
<g clip-path="url(#clip0_6_34)">
<path d="M0 33.7297C0 24.3135 5.33178 11.946 15.9953 8.71353C19.7837 7.5892 25.8171 8.15137 25.8171 14.0541C25.8171 17.146 24.1333 19.1135 21.3271 19.6757C19.5031 19.9568 21.8884 14.6162 16.276 15.8811C9.82171 17.2865 7.15581 25.0162 7.15581 30.9189C7.15581 39.773 12.9085 43.146 16.8372 43.0054C24.1333 42.7243 24.6946 34.9946 25.1155 34.8541C25.6767 34.8541 26.0977 38.9297 26.0977 39.4919C26.238 47.3622 21.1868 52 14.8729 51.8595C4.77054 51.7189 0 42.5838 0 33.7297Z" fill="#5A3428"/>
<path d="M102.988 0.281094C103.549 0.281094 105.233 0.140553 105.233 1.40542C105.233 1.82704 102.286 10.2595 101.725 10.2595C101.023 10.2595 99.6202 7.30812 95.2706 7.30812C92.1838 7.30812 88.8163 9.83785 88.8163 15.7406C88.8163 19.3946 88.9566 20.5189 90.2194 20.5189C93.1659 20.5189 93.4466 17.7081 99.3396 17.8487C99.9008 17.8487 100.883 17.8487 100.883 18.973C100.883 19.2541 99.059 28.8108 98.3574 28.8108C97.9365 28.8108 96.6737 27.9676 94.99 27.9676C91.0613 27.9676 89.0969 31.0595 89.0969 36.1189C89.0969 41.4595 90.921 50.0324 90.7807 50.7351C90.7807 51.4378 89.6582 51.2973 89.3776 51.2973C87.6938 51.2973 85.8698 51.2973 84.1861 51.2973C83.0636 51.2973 81.8008 52.4216 81.6605 29.5135C81.3799 -0.983772 83.7652 1.24678e-05 84.607 1.24678e-05C90.6403 1.24678e-05 96.814 1.24767e-05 102.988 0.281094Z" fill="#5A3428"/>
<path d="M127.682 2.3892C128.243 2.3892 129.787 2.52974 129.787 3.65406C129.787 4.07569 126.84 11.946 126.279 11.946C125.578 11.946 124.174 8.99461 119.825 8.57298C116.738 8.2919 113.371 10.5406 113.371 16.3027C113.371 19.9568 113.511 21.0811 114.774 21.0811C117.72 21.2216 118.001 18.4108 123.894 18.973C124.455 18.973 125.437 19.1135 125.437 20.0973C125.437 20.3784 123.613 29.5135 122.912 29.5135C122.491 29.5135 121.228 28.5297 119.544 28.5297C115.615 28.3892 113.651 31.3406 113.651 36.2595C113.651 41.4595 115.335 49.8919 115.335 50.5946C115.335 51.2973 114.212 51.1568 113.791 51.1568C112.108 51.1568 110.284 51.1568 108.6 51.1568C107.478 51.1568 106.215 52.2811 106.215 29.5135C106.355 -0.562153 108.6 0.702713 109.442 0.702713C115.475 0.983794 121.509 1.54596 127.682 2.3892Z" fill="#5A3428"/>
<path d="M132.312 51.0162C129.927 51.1568 130.629 49.0487 130.488 37.2433C130.488 29.373 133.295 2.95137 134.557 3.23245C140.45 4.07569 146.343 5.20002 152.096 6.46488C152.657 6.60542 154.201 6.74596 154.201 7.87029C154.201 8.29191 151.254 15.1784 150.693 15.1784C149.992 15.0379 148.588 12.227 144.239 11.5243C141.152 10.9622 137.925 12.9297 137.785 18.4108C137.785 19.6757 137.925 21.6433 139.188 21.7838C140.591 21.9243 143.818 19.6757 147.606 20.2379C148.167 20.3784 149.571 20.8 149.571 21.6433C149.571 21.6433 147.045 30.2162 146.484 30.2162C146.063 30.2162 144.379 28.9514 142.555 28.8108C140.31 28.5297 136.943 30.4973 136.943 36.1189C136.943 40.6162 138.767 43.9892 142.555 44.1297C146.905 44.2703 149.711 40.7568 150.833 40.8973C151.535 41.0379 154.341 50.0325 154.341 50.5946C154.341 51.5784 153.219 51.4379 152.657 51.4379C145.923 51.1568 139.047 51.0162 132.312 51.0162Z" fill="#5A3428"/>
<path d="M158.831 51.1568C156.446 51.2973 157.147 49.4703 157.007 38.7892C157.007 31.6216 159.673 8.0108 160.936 8.43242C166.688 9.83783 172.441 11.3838 178.194 13.2108C178.755 13.3513 180.298 13.773 180.298 14.6162C180.298 14.8973 177.492 20.5189 176.931 20.3784C176.229 20.2378 174.826 17.7081 170.617 16.5838C167.53 15.8811 164.303 17.1459 164.303 22.0649C164.303 23.1892 164.443 25.0162 165.706 25.1567C167.109 25.4378 170.336 23.6108 173.984 24.3135C174.546 24.454 175.949 24.8757 175.949 25.7189C175.949 25.7189 173.423 32.8865 172.862 32.8865C172.441 32.8865 170.757 31.6216 169.074 31.3405C166.829 31.0595 163.461 32.4649 163.461 37.5243C163.461 41.6 165.285 44.5513 169.074 44.6919C173.423 44.8324 176.229 42.0216 177.212 42.0216C177.913 42.1622 180.86 49.8919 180.86 50.3135C180.86 51.1568 179.737 51.0162 179.176 51.0162C172.581 51.1568 165.706 51.1568 158.831 51.1568Z" fill="#5A3428"/>
<path d="M72.1194 23.6108C69.3132 10.5405 58.5093 1.82703 47.986 4.21622C46.162 4.63784 44.338 5.34054 42.7946 6.46487C44.6186 11.8054 48.2666 19.8162 54.0194 24.3135C60.4736 29.373 64.8232 39.4919 67.0682 46.5189C71.9791 41.0378 74.0837 32.4649 72.1194 23.6108Z" fill="#5A3428"/>
<path d="M39.5675 9.13513C34.6566 14.4757 32.552 23.0486 34.5163 32.0432C37.4628 45.1135 48.2667 53.827 58.6497 51.5784C60.614 51.1568 62.2977 50.3135 63.9814 49.3297C62.0171 42.8649 57.9481 32.1838 51.7745 27.4054C45.4605 22.627 41.6721 14.8973 39.5675 9.13513Z" fill="#5A3428"/>
</g>
<defs>
<clipPath id="clip0_6_34">
<rect width="181" height="52" fill="white"/>
</clipPath>
</defs>
</svg>
