<svg width="396" height="276" viewBox="0 0 396 276" fill="none" xmlns="http://www.w3.org/2000/svg">
<path d="M130.185 368.92C60.8526 368.92 4.64597 312.635 4.64598 243.202C4.64598 173.77 60.8526 117.484 130.185 117.484C199.518 117.484 255.725 173.77 255.725 243.202C255.725 312.635 199.518 368.92 130.185 368.92Z" stroke="#93430A"/>
<path d="M143.453 373.902C65.8767 373.902 2.98766 310.925 2.98766 233.238C2.98767 155.55 65.8767 92.5729 143.453 92.5729C221.029 92.5729 283.918 155.55 283.918 233.238C283.918 310.925 221.029 373.902 143.453 373.902Z" stroke="#93430A"/>
<path d="M154.232 378.885C69.329 378.885 0.499928 309.959 0.499932 224.934C0.499936 139.909 69.329 70.9834 154.232 70.9834C239.136 70.9834 307.965 139.909 307.965 224.934C307.965 309.959 239.136 378.885 154.232 378.885Z" stroke="#93430A"/>
<path d="M169.988 382.206C78.6729 382.206 4.64638 308.076 4.64639 216.63C4.64639 125.184 78.6729 51.0542 169.988 51.0542C261.303 51.0542 335.329 125.184 335.329 216.63C335.329 308.076 261.303 382.206 169.988 382.206Z" stroke="#93430A"/>
<path d="M185.328 385.528C87.8306 385.528 8.79222 306.378 8.79223 208.742C8.79223 111.105 87.8306 31.9553 185.328 31.9553C282.825 31.9553 361.864 111.105 361.864 208.742C361.864 306.379 282.825 385.528 185.328 385.528Z" stroke="#93430A"/>
<path d="M202.741 389.68C95.6268 389.68 8.79222 302.723 8.79223 195.456C8.79223 88.188 95.6268 1.23155 202.741 1.23156C309.856 1.23156 396.69 88.188 396.69 195.456C396.69 302.723 309.856 389.68 202.741 389.68Z" stroke="#93430A"/>
</svg>
